<svg width="215" height="221" viewBox="0 0 215 221" fill="none" xmlns="http://www.w3.org/2000/svg">
<path d="M126.472 3.05176e-05V16.9121C165.533 16.9121 197.319 48.6974 197.319 87.7707H214.232C214.232 39.3747 174.863 3.05176e-05 126.472 3.05176e-05Z" fill="#E5E5E4"/>
<path d="M126.472 38.8494V55.7627C144.128 55.7627 158.481 70.1214 158.481 87.7707H175.393C175.393 60.7987 153.445 38.8494 126.472 38.8494Z" fill="#E5E5E4"/>
<path d="M126.501 76.9267C120.463 76.9267 115.633 81.7574 115.633 87.7961C115.633 93.7134 120.463 98.6654 126.501 98.6654C132.419 98.6654 137.371 93.7134 137.371 87.7961C137.371 81.7574 132.419 76.9267 126.501 76.9267Z" fill="#E5E5E4"/>
<path d="M76.8654 217.867C84.3534 215.451 91.3574 211.345 97.7587 205.789C118.048 186.707 127.227 174.631 143.892 174.147C153.555 173.784 164.545 169.195 169.135 159.776L106.575 97.3374C98.2414 101.927 89.6667 106.153 80.972 110.139C83.1454 119.197 85.3187 128.376 86.7681 137.433C79.1601 146.249 71.3093 154.824 62.856 162.916C55.488 170.161 47.6387 176.925 39.064 183.205L38.0973 182.48L75.0534 134.172L67.6867 106.999C66.8414 101.443 75.0534 100.477 79.4014 98.1827L92.5654 92.748L99.208 89.9694L60.9227 51.6854C52.7107 55.792 48.0014 64.7294 47.0347 73.4241C47.0347 74.5121 46.9147 75.3574 46.9147 76.2027V76.9267C46.9147 78.0134 46.552 78.98 46.552 79.8254C46.3107 80.912 46.3107 81.9987 46.0694 82.8454C44.4987 90.816 39.668 97.4587 32.4214 105.187C27.5907 110.38 21.7934 115.936 15.272 123.181C-3.32664 143.592 -4.29195 171.249 8.87072 192.384C3.79872 194.679 0.0547074 199.751 0.0547074 205.911C0.0547074 214.123 6.57602 220.644 14.548 220.644C20.948 220.644 26.0201 216.9 28.1947 211.585C35.3201 216.175 43.0494 218.832 51.1414 219.919C59.8374 221.248 68.532 220.764 76.8654 217.867Z" fill="#E5E5E4"/>
</svg>
